---
title: 群星.1991-相逢何必曾相识·91情歌精选系列1【麦罗唱片】【WAV+CUE】
date: 2022-08-16 12:00:13
categories: WAV车载音乐、镜像
tags: 华语中文
---
# 群星.1991-相逢何必曾相识·91情歌精选系列1【麦罗唱片】【WAV+CUE】

FILE "群星.-.[相逢何必曾相识](1991)[WAV].wav" WAVE
TRACK 01 AUDIO
TITLE
"相逢何必曾相识（国语版）"
PERFORMER "蒋志光"
INDEX 01 00:00:00
TRACK 02 AUDIO
TITLE "说再见的不要后悔"
PERFORMER "郑丽丝"
INDEX 00 04:23:30
INDEX 01 04:26:30
TRACK 03 AUDIO
TITLE "痴恋"
PERFORMER "王一正"
INDEX 00 08:44:25
INDEX 01 08:47:25
TRACK 04 AUDIO
TITLE "款款情深"
PERFORMER "蓝丽婷"
INDEX 00 12:04:32
INDEX 01 12:07:32
TRACK 05 AUDIO
TITLE "和你的故事像一场游戏"
PERFORMER "刘瑞璋"
INDEX 00 16:05:12
INDEX 01 16:08:12
TRACK 06 AUDIO
TITLE "平凡英雄"
PERFORMER "杨若"
INDEX 00 20:47:10
INDEX 01 20:50:10
TRACK 07 AUDIO
TITLE "喜马拉雅"
PERFORMER "蒋志光"
INDEX 00 24:36:35
INDEX 01 24:39:35
TRACK 08 AUDIO
TITLE "你还是乱说"
PERFORMER "郑丽丝"
INDEX 00 29:18:30
INDEX 01 29:21:30
TRACK 09 AUDIO
TITLE "其实我真的想"
PERFORMER "刘伟仁"
INDEX 00 33:15:72
INDEX 01 33:18:72
TRACK 10 AUDIO
TITLE "等待最爱"
PERFORMER "蓝丽婷"
INDEX 00 38:28:02
INDEX 01 38:31:02
TRACK 11 AUDIO
TITLE "寂寞心事"
PERFORMER "刘瑞璋"
INDEX 00 43:44:45
INDEX 01 43:47:45
TRACK 12 AUDIO
TITLE "给你一个有灯的窗口"
PERFORMER "杨若"
INDEX 00 47:41:55
INDEX 01 47:44:55
群星.1991 -
相逢何必曾相识·91情歌精选系列1【麦罗唱片】【WAV+CUE】.rar: https://url27.ctfile.com/f/9388027-649612919-65a997?p=559675
(访问密码: 559675)
原文：[链接](https://blog.sina.com.cn/s/blog_1647c7e7601030ywa.html)